<?xml version="1.0" encoding="UTF-8" standalone="no"?>
<svg width="201px" height="46px" viewBox="0 0 201 46" version="1.1" xmlns="http://www.w3.org/2000/svg" xmlns:xlink="http://www.w3.org/1999/xlink" xmlns:sketch="http://www.bohemiancoding.com/sketch/ns">
    <title>Slice 1</title>
    <description>Created with Sketch (http://www.bohemiancoding.com/sketch)</description>
    <defs></defs>
    <g id="Page-1" stroke="none" stroke-width="1" fill="none" fill-rule="evenodd" sketch:type="MSPage">
        <g id="logo" sketch:type="MSLayerGroup">
            <path d="M43.8666667,4.73727512 L40,4.73727512 L40,0 L50.1624792,0 L50.1624792,11.0191855 C50.1624792,12.2659478 50.063065,13.1633636 50.063065,13.1633636 L50.1624792,13.1633636 C50.1624792,13.1633636 52.4427135,9.37413419 57.7473205,9.37413419 C64.5880234,9.37413419 69,14.8092587 69,22.6872781 C69,30.7648638 64.0427135,36 57.3500832,36 C51.8479063,36 49.8151587,31.9614181 49.8151587,31.9614181 L49.716164,31.9614181 C49.716164,31.9614181 49.8151587,32.8588339 49.8151587,33.8562438 L49.8151587,35.4017228 L43.8666667,35.4017228 L43.8666667,4.73727512 L43.8666667,4.73727512 Z M56.4236461,30 C59.9920029,30 63,27.3114074 63,22.5468987 C63,17.9715814 60.3487523,15 56.5254513,15 C53.1607048,15 50,17.26391 50,22.593997 C50,26.320348 52.0904566,30 56.4236461,30 L56.4236461,30 Z" id="Fill-1" fill="#FFFFFF" sketch:type="MSShapeGroup"></path>
            <path d="M71.9187539,14.7318323 L68,14.7318323 L68,10 L78.2180553,10 L78.2180553,25.2415828 C78.2180553,28.2799527 79.0112913,30.3717032 82.1859143,30.3717032 C86.5503913,30.3717032 89.1794021,25.8889591 89.1794021,21.3067484 L89.1794021,14.7318323 L85.3105927,14.7318323 L85.3105927,10 L95.4787035,10 L95.4787035,29.6244387 C95.4787035,30.3219699 95.8753215,30.7206795 96.569508,30.7206795 L99,30.7206795 L99,35.402357 L92.7506431,35.402357 C90.5182503,35.402357 89.4769706,34.3566924 89.4769706,32.5633419 L89.4769706,31.6171441 C89.4769706,30.9697677 89.5264954,30.4214366 89.5264954,30.4214366 L89.4274458,30.4214366 C89.1298773,31.2685892 86.5503913,36 80.2015651,36 C75.1424819,36 71.9187539,33.2604516 71.9187539,26.3374021 L71.9187539,14.7318323" id="Fill-2" fill="#FFFFFF" sketch:type="MSShapeGroup"></path>
            <path d="M97.9359191,4.79032946 L94,4.79032946 L94,0 L104.213744,0 L104.213744,27.2265466 C104.213744,29.5461958 104.711636,30.7561507 106.804384,30.7561507 C107.501686,30.7561507 108,30.7058071 108,30.7058071 L108,35.8485423 C108,35.8485423 106.953626,36 105.708263,36 C101.672428,36 97.9359191,34.639014 97.9359191,27.6301493 L97.9359191,4.79032946" id="Fill-3" fill="#FFFFFF" sketch:type="MSShapeGroup"></path>
            <path d="M108.935919,4.79032946 L105,4.79032946 L105,0 L115.213322,0 L115.213322,27.2265466 C115.213322,29.5461958 115.711636,30.7561507 117.804806,30.7561507 C118.502108,30.7561507 119,30.7058071 119,30.7058071 L119,35.8485423 C119,35.8485423 117.953626,36 116.708685,36 C112.672428,36 108.935919,34.639014 108.935919,27.6301493 L108.935919,4.79032946" id="Fill-4" fill="#FFFFFF" sketch:type="MSShapeGroup"></path>
            <path d="M120.916164,41.2631468 L120.916164,16.4321125 C120.916164,15.7342631 120.519346,15.3351304 119.825544,15.3351304 L117,15.3351304 L117,10.5982772 L123.494221,10.5982772 C125.823534,10.5982772 126.61675,11.6948374 126.61675,12.9918078 L126.61675,13.1411661 C126.61675,13.7394433 126.567252,14.2879344 126.567252,14.2879344 L126.666667,14.2879344 C126.666667,14.2879344 128.847487,10 134.796398,10 C141.637101,10 146,15.4351245 146,23.3131439 C146,31.3907296 141.092211,36.6258658 134.449497,36.6258658 C129.442294,36.6258658 127.16206,33.0357808 127.16206,33.0357808 L127.063065,33.0357808 C127.063065,33.0357808 127.211977,33.9331966 127.211977,35.230167 L127.211977,41.2631468 L130.880234,41.2631468 L130.880234,46 L117.248326,46 L117.248326,41.2631468 L120.916164,41.2631468 L120.916164,41.2631468 Z M133.474332,30 C137.043239,30 140,27.3114074 140,22.5468987 C140,17.9715814 137.349096,15 133.525668,15 C130.160378,15 127,17.26391 127,22.593997 C127,26.320348 129.242807,30 133.474332,30 L133.474332,30 Z" id="Fill-5" fill="#FFFFFF" sketch:type="MSShapeGroup"></path>
            <path d="M159.323525,10 C166.88455,10 171,15.4100971 171,22.2359326 C171,22.9945014 170.845045,24.4102398 170.845045,24.4102398 L152.687443,24.4102398 C153.098771,29.1631673 156.597012,31.5903307 160.557943,31.5903307 C164.827042,31.5903307 168.170764,28.8598254 168.170764,28.8598254 L170.691396,33.4103824 C170.691396,33.4103824 166.678668,37 160.094383,37 C151.401229,37 146,30.8313341 146,23.5002139 C146,15.561982 151.453026,10 159.323525,10 L159.323525,10 Z M163,20 C162.901044,16.8751889 160.770146,15 158.094572,15 C154.873904,15 152.594572,17.0089151 152,20 L163,20 L163,20 Z" id="Fill-6" fill="#FFFFFF" sketch:type="MSShapeGroup"></path>
            <path d="M170.244496,31.2685892 L173.868836,31.2685892 L173.868836,16.4252946 C173.868836,15.7281849 173.477228,15.3294753 172.791811,15.3294753 L170,15.3294753 L170,10.597643 L176.562434,10.597643 C178.765797,10.597643 179.794337,11.6433076 179.794337,13.4366581 L179.794337,14.5822108 C179.794337,15.1301204 179.696539,15.6784516 179.696539,15.6784516 L179.794337,15.6784516 C180.088147,14.8810323 182.73326,10 189.001885,10 C194.339768,10 197.37566,12.9389032 197.37566,19.6630193 L197.37566,31.2685892 L201,31.2685892 L201,36 L191.204834,36 L191.204834,20.9577721 C191.204834,17.8696688 190.373134,15.7779183 187.2382,15.7779183 C182.73326,15.7779183 180.088147,20.1607742 180.088147,24.593785 L180.088147,31.2685892 L183.663173,31.2685892 L183.663173,36 L170.244496,36 L170.244496,31.2685892" id="Fill-7" fill="#FFFFFF" sketch:type="MSShapeGroup"></path>
            <path d="M17.9634264,25 C19.1060635,25 20,24.1411139 20,22.5500626 C20,21.0607009 19.2057748,20 18.0134745,20 C16.9940327,20 16,20.8084324 16,22.4737954 C16,23.7875469 16.6217517,25 17.9634264,25" id="Fill-8" fill="#B3CF38" sketch:type="MSShapeGroup"></path>
            <path d="M19.466332,9.25899955 C15.6702121,9.25899955 13.2362002,11.6725796 13.2362002,11.6725796 L13.139877,11.6725796 C13.139877,11.6725796 13.2362002,10.7857118 13.2362002,9.45645156 L13.2362002,0 L0,0 L0,7.28906169 L3.06587526,7.28906169 L3.06587526,35.4093102 L10.59143,35.4093102 L10.5877252,30.962891 L10.5877252,20.1809282 C10.5877252,19.8301802 10.3744971,19.5881557 10.0027885,19.5881557 L8.91236107,19.5881557 L8.91236107,15.6091228 L13.6951759,15.6091228 C14.7851917,15.6091228 15.5026756,15.9323775 15.5026756,16.9263026 C15.5026756,16.9529628 15.5026756,17.0883466 15.4763309,17.1954039 L15.5290204,17.1954039 C15.5290204,17.1954039 16.7783399,15.2867011 19.6470409,15.2867011 C23.2085275,15.2867011 25.8125456,18.2709758 25.8125456,22.5466033 C25.8125456,26.983025 22.9701895,29.8877356 19.4613924,29.8877356 C17.283419,29.8877356 16.1143688,28.7301003 16.1143688,28.7301003 L16.0612676,28.7301003 C16.0612676,28.7301003 16.1143688,29.0808484 16.1143688,29.7798452 L16.1143688,30.962891 L16.1172503,35.5663554 C16.9351738,35.8271254 17.9136358,36 19.0769231,36 C25.8413603,36 31,30.7304475 31,22.6544937 C31,14.7260041 26.3764889,9.25899955 19.466332,9.25899955" id="Fill-9" fill="#B3CF38" sketch:type="MSShapeGroup"></path>
        </g>
    </g>
</svg>