<?xml version="1.0" encoding="utf-8"?>
<!-- Generator: Adobe Illustrator 17.1.0, SVG Export Plug-In . SVG Version: 6.00 Build 0)  -->
<!DOCTYPE svg PUBLIC "-//W3C//DTD SVG 1.1//EN" "http://www.w3.org/Graphics/SVG/1.1/DTD/svg11.dtd">
<svg version="1.1" id="Layer_1" xmlns="http://www.w3.org/2000/svg" xmlns:xlink="http://www.w3.org/1999/xlink" x="0px" y="0px"
	 viewBox="0 0 523.742 179.671" enable-background="new 0 0 523.742 179.671" xml:space="preserve">
<polyline fill="#B1D345" points="62.204,0.027 39.87,0.027 6.578,64.849 26.412,64.849 0,179.671 62.228,89.651 "/>
<g>
	<g>
		<g>
			<path d="M51.215,14.001H39.719V0h30.214v32.572c0,3.685-0.295,6.338-0.295,6.338h0.295c0,0,6.78-11.201,22.55-11.201
				c20.339,0,33.456,16.065,33.456,39.352c0,23.876-14.738,39.352-34.636,39.352c-16.359,0-22.402-11.938-22.402-11.938h-0.295
				c0,0,0.295,2.653,0.295,5.601v4.569H51.215V14.001z M88.061,90.642c10.317,0,19.013-8.401,19.013-23.287
				c0-14.296-7.663-23.582-18.718-23.582c-9.727,0-18.865,7.074-18.865,23.729C69.491,79.146,75.534,90.642,88.061,90.642z"/>
			<path d="M135.079,43.479h-11.643V29.477h30.36v45.1c0,8.99,2.358,15.181,11.791,15.181c12.97,0,20.781-13.265,20.781-26.824
				V43.479h-11.496V29.477h30.214v58.069c0,2.063,1.18,3.243,3.242,3.243h7.223v13.854h-18.57c-6.633,0-9.729-3.095-9.729-8.401
				v-2.8c0-1.916,0.148-3.537,0.148-3.537h-0.295c-0.885,2.505-8.549,16.507-27.414,16.507c-15.033,0-24.613-8.106-24.613-28.593
				V43.479z"/>
			<path d="M217.911,14.001h-11.643V0h30.214v79.588c0,6.779,1.474,10.317,7.663,10.317c2.064,0,3.538-0.147,3.538-0.147v15.033
				c0,0-3.095,0.442-6.78,0.442c-11.938,0-22.992-3.979-22.992-24.466V14.001z"/>
			<path d="M247.684,14.001h-11.643V0h30.213v79.588c0,6.779,1.475,10.317,7.664,10.317c2.063,0,3.537-0.147,3.537-0.147v15.033
				c0,0-3.095,0.442-6.779,0.442c-11.938,0-22.992-3.979-22.992-24.466V14.001z"/>
			<path d="M282.174,120.119V46.721c0-2.063-1.179-3.242-3.242-3.242h-8.4V29.477h19.307c6.928,0,9.285,3.242,9.285,7.074v0.442
				c0,1.769-0.146,3.39-0.146,3.39h0.295c0,0,6.484-12.675,24.17-12.675c20.34,0,33.31,16.065,33.31,39.352
				c0,23.876-14.591,39.352-34.341,39.352c-14.886,0-21.666-10.612-21.666-10.612h-0.294c0,0,0.442,2.653,0.442,6.485v17.834h10.906
				v14.001h-40.531v-14.001H282.174z M319.021,90.642c10.317,0,18.865-8.401,18.865-23.287c0-14.296-7.664-23.582-18.718-23.582
				c-9.728,0-18.865,7.074-18.865,23.729C300.303,79.146,306.788,90.642,319.021,90.642z"/>
			<path d="M396.547,27.708c21.666,0,33.456,15.77,33.456,35.667c0,2.21-0.441,6.337-0.441,6.337h-52.027
				c1.179,13.854,11.201,20.929,22.55,20.929c12.233,0,21.813-7.959,21.813-7.959l7.222,13.265c0,0-11.496,10.464-30.361,10.464
				c-24.908,0-40.384-17.981-40.384-39.352C358.375,43.92,373.998,27.708,396.547,27.708z M410.697,58.659
				c-0.295-10.317-6.633-16.507-14.592-16.507c-9.58,0-16.359,6.632-18.128,16.507H410.697z"/>
			<path d="M431.184,90.642h10.907V46.721c0-2.063-1.18-3.242-3.243-3.242h-8.4V29.477h19.749c6.633,0,9.728,3.095,9.728,8.401v3.39
				c0,1.621-0.295,3.243-0.295,3.243h0.295c0.885-2.358,8.843-16.802,27.708-16.802c16.065,0,25.203,8.695,25.203,28.592v34.341
				h10.906v14.001h-29.477v-44.51c0-9.138-2.506-15.328-11.938-15.328c-13.56,0-21.518,12.97-21.518,26.087v19.75h10.759v14.001
				h-40.384V90.642z"/>
		</g>
	</g>
</g>
</svg>
