<?xml version="1.0" encoding="utf-8"?>
<!-- Generator: Adobe Illustrator 17.1.0, SVG Export Plug-In . SVG Version: 6.00 Build 0)  -->
<!DOCTYPE svg PUBLIC "-//W3C//DTD SVG 1.1//EN" "http://www.w3.org/Graphics/SVG/1.1/DTD/svg11.dtd">
<svg version="1.1" id="Layer_1" xmlns="http://www.w3.org/2000/svg" xmlns:xlink="http://www.w3.org/1999/xlink" x="0px" y="0px"
	 viewBox="0 0 483.538 128.104" enable-background="new 0 0 483.538 128.104" xml:space="preserve">
<g>
</g>
<g>
</g>
<g>
</g>
<g>
	<g>
		<g>
			<path d="M104.655,27.771h-9.219V16.544h24.227v26.117c0,2.955-0.236,5.082-0.236,5.082h0.236c0,0,5.438-8.981,18.082-8.981
				c16.309,0,26.826,12.882,26.826,31.554c0,19.146-11.816,31.554-27.771,31.554c-13.117,0-17.963-9.572-17.963-9.572h-0.236
				c0,0,0.236,2.127,0.236,4.491v3.663h-14.182V27.771z M134.2,89.225c8.271,0,15.244-6.736,15.244-18.673
				c0-11.463-6.145-18.908-15.008-18.908c-7.801,0-15.127,5.672-15.127,19.026C119.31,80.006,124.155,89.225,134.2,89.225z"/>
			<path d="M171.899,51.407h-9.338V40.18h24.346v36.163c0,7.209,1.891,12.172,9.455,12.172c10.398,0,16.662-10.636,16.662-21.508
				v-15.6h-9.217V40.18h24.227v46.562c0,1.654,0.945,2.601,2.6,2.601h5.791v11.108h-14.891c-5.318,0-7.801-2.481-7.801-6.736V91.47
				c0-1.536,0.119-2.837,0.119-2.837h-0.236c-0.709,2.01-6.855,13.236-21.982,13.236c-12.053,0-19.734-6.5-19.734-22.927V51.407z"/>
			<path d="M238.315,27.771h-9.336V16.544h24.227V80.36c0,5.437,1.182,8.272,6.145,8.272c1.654,0,2.836-0.118,2.836-0.118v12.055
				c0,0-2.48,0.354-5.436,0.354c-9.572,0-18.436-3.19-18.436-19.618V27.771z"/>
			<path d="M262.186,27.771h-9.336V16.544h24.227V80.36c0,5.437,1.182,8.272,6.146,8.272c1.654,0,2.836-0.118,2.836-0.118v12.055
				c0,0-2.482,0.354-5.436,0.354c-9.574,0-18.438-3.19-18.438-19.618V27.771z"/>
			<path d="M289.843,112.86V54.007c0-1.654-0.945-2.6-2.6-2.6h-6.736V40.18h15.482c5.553,0,7.443,2.6,7.443,5.673v0.354
				c0,1.418-0.117,2.718-0.117,2.718h0.236c0,0,5.199-10.163,19.381-10.163c16.309,0,26.709,12.882,26.709,31.554
				c0,19.146-11.699,31.554-27.535,31.554c-11.938,0-17.373-8.509-17.373-8.509h-0.236c0,0,0.355,2.127,0.355,5.2v14.3h8.744v11.227
				h-32.498V112.86H289.843z M319.388,89.225c8.273,0,15.127-6.736,15.127-18.673c0-11.463-6.145-18.908-15.008-18.908
				c-7.801,0-15.127,5.672-15.127,19.026C304.38,80.006,309.579,89.225,319.388,89.225z"/>
			<path d="M381.55,38.762c17.371,0,26.826,12.646,26.826,28.6c0,1.772-0.355,5.081-0.355,5.081h-41.717
				c0.945,11.109,8.982,16.782,18.082,16.782c9.809,0,17.49-6.382,17.49-6.382l5.791,10.636c0,0-9.219,8.391-24.346,8.391
				c-19.973,0-32.381-14.418-32.381-31.554C350.94,51.762,363.468,38.762,381.55,38.762z M392.894,63.579
				c-0.236-8.272-5.318-13.236-11.699-13.236c-7.682,0-13.117,5.318-14.535,13.236H392.894z"/>
			<path d="M409.321,89.225h8.746V54.007c0-1.654-0.945-2.6-2.6-2.6h-6.736V40.18h15.836c5.316,0,7.799,2.481,7.799,6.736v2.718
				c0,1.3-0.236,2.601-0.236,2.601h0.236c0.709-1.892,7.092-13.473,22.219-13.473c12.881,0,20.207,6.973,20.207,22.927v27.536h8.746
				v11.227h-23.637v-35.69c0-7.327-2.008-12.29-9.572-12.29c-10.871,0-17.254,10.399-17.254,20.917v15.837h8.627v11.227h-32.381
				V89.225z"/>
		</g>
	</g>
</g>
<g>
</g>
<g>
	<path fill="#A8CF38" d="M43.859,76.385c2.968,0,5.29-2.195,5.29-6.264c0-3.808-2.063-6.52-5.16-6.52
		c-2.648,0-5.23,2.066-5.23,6.325C38.759,73.286,40.374,76.385,43.859,76.385z"/>
	<path fill="#A8CF38" d="M47.29,37.902c-9.222,0-15.135,5.794-15.135,5.794h-0.234c0,0,0.234-2.129,0.234-5.32v-22.7H0v17.497h7.448
		v67.506H25.73l-0.01-10.675V64.121c0-0.842-0.518-1.423-1.421-1.423h-2.649v-9.552h11.619c2.647,0,4.391,0.775,4.391,3.162
		c0,0.063,0,0.389-0.064,0.646h0.128c0,0,3.035-4.582,10.005-4.582c8.651,0,14.978,7.164,14.978,17.428
		c0,10.65-6.905,17.623-15.429,17.623c-5.291,0-8.131-2.778-8.131-2.778h-0.13c0,0,0.13,0.842,0.13,2.52v2.84l0.007,11.052
		c1.986,0.626,4.363,1.041,7.189,1.041c16.434,0,28.965-12.65,28.965-32.037C75.309,51.026,64.077,37.902,47.29,37.902z"/>
</g>
<g>
</g>
</svg>
